<?xml version="1.0" encoding="UTF-8" standalone="no"?>
<!-- Created with Inkscape (http://www.inkscape.org/) -->

<svg
   width="128.53105mm"
   height="80.101723mm"
   viewBox="0 0 128.53105 80.101723"
   version="1.1"
   id="svg935"
   inkscape:version="1.2.1 (9c6d41e410, 2022-07-14)"
   sodipodi:docname="arch.svg"
   xmlns:inkscape="http://www.inkscape.org/namespaces/inkscape"
   xmlns:sodipodi="http://sodipodi.sourceforge.net/DTD/sodipodi-0.dtd"
   xmlns="http://www.w3.org/2000/svg"
   xmlns:svg="http://www.w3.org/2000/svg">
  <sodipodi:namedview
     id="namedview937"
     pagecolor="#ffffff"
     bordercolor="#000000"
     borderopacity="0.25"
     inkscape:showpageshadow="2"
     inkscape:pageopacity="0.0"
     inkscape:pagecheckerboard="0"
     inkscape:deskcolor="#d1d1d1"
     inkscape:document-units="mm"
     showgrid="false"
     inkscape:zoom="1.4396184"
     inkscape:cx="287.22889"
     inkscape:cy="139.96765"
     inkscape:window-width="1920"
     inkscape:window-height="991"
     inkscape:window-x="-9"
     inkscape:window-y="-9"
     inkscape:window-maximized="1"
     inkscape:current-layer="g765" />
  <defs
     id="defs932">
    <clipPath
       clipPathUnits="userSpaceOnUse"
       id="clipPath1890">
      <path
         d="M 1.4305e-5,0 H 960.00001 V 540 H 1.4305e-5 Z"
         clip-rule="evenodd"
         id="path1888" />
    </clipPath>
    <clipPath
       clipPathUnits="userSpaceOnUse"
       id="clipPath1904">
      <path
         d="M 1.4305e-5,0 H 960.00001 V 540 H 1.4305e-5 Z"
         clip-rule="evenodd"
         id="path1902" />
    </clipPath>
    <clipPath
       clipPathUnits="userSpaceOnUse"
       id="clipPath1918">
      <path
         d="M 1.4305e-5,0 H 960.00001 V 540 H 1.4305e-5 Z"
         clip-rule="evenodd"
         id="path1916" />
    </clipPath>
    <clipPath
       clipPathUnits="userSpaceOnUse"
       id="clipPath1932">
      <path
         d="M 1.4305e-5,0 H 960.00001 V 540 H 1.4305e-5 Z"
         clip-rule="evenodd"
         id="path1930" />
    </clipPath>
    <clipPath
       clipPathUnits="userSpaceOnUse"
       id="clipPath1944">
      <path
         d="M 1.4305e-5,0 H 960.00001 V 540 H 1.4305e-5 Z"
         clip-rule="evenodd"
         id="path1942" />
    </clipPath>
    <clipPath
       clipPathUnits="userSpaceOnUse"
       id="clipPath1958">
      <path
         d="M 1.4305e-5,0 H 960.00001 V 540 H 1.4305e-5 Z"
         clip-rule="evenodd"
         id="path1956" />
    </clipPath>
    <clipPath
       clipPathUnits="userSpaceOnUse"
       id="clipPath1972">
      <path
         d="M 1.4305e-5,0 H 960.00001 V 540 H 1.4305e-5 Z"
         clip-rule="evenodd"
         id="path1970" />
    </clipPath>
    <clipPath
       clipPathUnits="userSpaceOnUse"
       id="clipPath1986">
      <path
         d="M 1.4305e-5,0 H 960.00001 V 540 H 1.4305e-5 Z"
         clip-rule="evenodd"
         id="path1984" />
    </clipPath>
    <clipPath
       clipPathUnits="userSpaceOnUse"
       id="clipPath2000">
      <path
         d="M 1.4305e-5,0 H 960.00001 V 540 H 1.4305e-5 Z"
         clip-rule="evenodd"
         id="path1998" />
    </clipPath>
    <clipPath
       clipPathUnits="userSpaceOnUse"
       id="clipPath2026">
      <path
         d="M 1.4305e-5,0 H 960.00001 V 540 H 1.4305e-5 Z"
         clip-rule="evenodd"
         id="path2024" />
    </clipPath>
    <clipPath
       clipPathUnits="userSpaceOnUse"
       id="clipPath2038">
      <path
         d="M 6.1035e-5,540 H 960 V 2.4414e-4 L 9.1553e-5,1.8311e-4"
         clip-rule="evenodd"
         id="path2036" />
    </clipPath>
    <clipPath
       clipPathUnits="userSpaceOnUse"
       id="clipPath2050">
      <path
         d="M 1.4305e-5,0 H 960.00001 V 540 H 1.4305e-5 Z"
         clip-rule="evenodd"
         id="path2048" />
    </clipPath>
    <clipPath
       clipPathUnits="userSpaceOnUse"
       id="clipPath2064">
      <path
         d="M 1.4305e-5,0 H 960.00001 V 540 H 1.4305e-5 Z"
         clip-rule="evenodd"
         id="path2062" />
    </clipPath>
    <clipPath
       clipPathUnits="userSpaceOnUse"
       id="clipPath2082">
      <path
         d="M 1.4305e-5,0 H 960.00001 V 540 H 1.4305e-5 Z"
         clip-rule="evenodd"
         id="path2080" />
    </clipPath>
    <clipPath
       clipPathUnits="userSpaceOnUse"
       id="clipPath2098">
      <path
         d="M 0,540 H 960 V 6.1035e-5 H 0"
         clip-rule="evenodd"
         id="path2096" />
    </clipPath>
    <clipPath
       clipPathUnits="userSpaceOnUse"
       id="clipPath2110">
      <path
         d="M 1.4305e-5,0 H 960.00001 V 540 H 1.4305e-5 Z"
         clip-rule="evenodd"
         id="path2108" />
    </clipPath>
    <clipPath
       clipPathUnits="userSpaceOnUse"
       id="clipPath2122">
      <path
         d="M 1.4305e-5,0 H 960.00001 V 540 H 1.4305e-5 Z"
         clip-rule="evenodd"
         id="path2120" />
    </clipPath>
    <clipPath
       clipPathUnits="userSpaceOnUse"
       id="clipPath2142">
      <path
         d="M 1.4305e-5,0 H 960.00001 V 540 H 1.4305e-5 Z"
         clip-rule="evenodd"
         id="path2140" />
    </clipPath>
    <clipPath
       clipPathUnits="userSpaceOnUse"
       id="clipPath2162">
      <path
         d="M 1.4305e-5,0 H 960.00001 V 540 H 1.4305e-5 Z"
         clip-rule="evenodd"
         id="path2160" />
    </clipPath>
  </defs>
  <g
     inkscape:label="Layer 1"
     inkscape:groupmode="layer"
     id="layer1"
     transform="translate(-22.595147,-46.164654)">
    <g
       id="g765"
       transform="matrix(0.26458333,0,0,0.26458333,-26.206032,13.967211)">
      <g
         id="g2409"
         transform="matrix(1.3333333,0,0,-1.3333333,-69.781257,782.50444)">
        <g
           id="g1874">
          <path
             d="m 344.4,471 c 0,7.75 6.29,14.04 14.04,14.04 H 526.2 c 7.75,0 14.04,-6.29 14.04,-14.04 v -56.16 c 0,-7.75 -6.29,-14.04 -14.04,-14.04 H 358.44 c -7.75,0 -14.04,6.29 -14.04,14.04 z"
             style="fill:none;stroke:#7f7f7f;stroke-width:0.5;stroke-linecap:butt;stroke-linejoin:miter;stroke-miterlimit:10;stroke-dasharray:2, 1.5;stroke-dashoffset:0;stroke-opacity:1"
             id="path1876" />
        </g>
        <g
           id="g1878">
          <path
             d="M 190.92,268.8 H 293.4 V 494.64 H 190.92 Z"
             style="fill:none;stroke:#7f7f7f;stroke-width:0.5;stroke-linecap:butt;stroke-linejoin:miter;stroke-miterlimit:10;stroke-dasharray:2, 1.5;stroke-dashoffset:0;stroke-opacity:1"
             id="path1880" />
        </g>
        <path
           d="m 199.92,390 h 80.76 v 14.4 h -80.76 z"
           style="fill:none;stroke:#ff0000;stroke-width:0.5;stroke-linecap:butt;stroke-linejoin:miter;stroke-miterlimit:10;stroke-dasharray:none;stroke-opacity:1"
           id="path1882" />
        <g
           id="g1884">
          <g
             id="g1886"
             clip-path="url(#clipPath1890)">
            <text
               xml:space="preserve"
               transform="matrix(1,0,0,-1,228.91,393.98)"
               style="font-variant:normal;font-weight:normal;font-size:7.56px;font-family:SimSun;-inkscape-font-specification:SimSun;writing-mode:lr-tb;fill:#000000;fill-opacity:1;fill-rule:nonzero;stroke:none"
               id="text1894"><tspan
                 x="0 7.5599999 15.12"
                 y="0"
                 sodipodi:role="line"
                 id="tspan1892">嗅探器</tspan></text>
          </g>
        </g>
        <path
           d="m 199.92,369.12 h 80.76 v 14.4 h -80.76 z"
           style="fill:none;stroke:#ff0000;stroke-width:0.5;stroke-linecap:butt;stroke-linejoin:miter;stroke-miterlimit:10;stroke-dasharray:none;stroke-opacity:1"
           id="path1896" />
        <g
           id="g1898">
          <g
             id="g1900"
             clip-path="url(#clipPath1904)">
            <text
               xml:space="preserve"
               transform="matrix(1,0,0,-1,228.91,373.13)"
               style="font-variant:normal;font-weight:normal;font-size:7.56px;font-family:SimSun;-inkscape-font-specification:SimSun;writing-mode:lr-tb;fill:#000000;fill-opacity:1;fill-rule:nonzero;stroke:none"
               id="text1908"><tspan
                 x="0 7.5599999 15.12"
                 y="0"
                 sodipodi:role="line"
                 id="tspan1906">监听器</tspan></text>
          </g>
        </g>
        <path
           d="m 401.64,465.84 h 80.76 v 14.4 h -80.76 z"
           style="fill:none;stroke:#000000;stroke-width:0.5;stroke-linecap:butt;stroke-linejoin:miter;stroke-miterlimit:10;stroke-dasharray:none;stroke-opacity:1"
           id="path1910" />
        <g
           id="g1912">
          <g
             id="g1914"
             clip-path="url(#clipPath1918)">
            <text
               xml:space="preserve"
               transform="matrix(1,0,0,-1,433.32,470.35)"
               style="font-variant:normal;font-weight:normal;font-size:7.56px;font-family:'Times New Roman';-inkscape-font-specification:TimesNewRomanPSMT;writing-mode:lr-tb;fill:#000000;fill-opacity:1;fill-rule:nonzero;stroke:none"
               id="text1922"><tspan
                 x="0 5.04252 8.3991604 12.23208 14.38668"
                 y="0"
                 sodipodi:role="line"
                 id="tspan1920">Redis</tspan></text>
          </g>
        </g>
        <path
           d="m 401.64,445.32 h 80.76 v 14.4 h -80.76 z"
           style="fill:none;stroke:#ff0000;stroke-width:0.5;stroke-linecap:butt;stroke-linejoin:miter;stroke-miterlimit:10;stroke-dasharray:none;stroke-opacity:1"
           id="path1924" />
        <g
           id="g1926">
          <g
             id="g1928"
             clip-path="url(#clipPath1932)">
            <text
               xml:space="preserve"
               transform="matrix(1,0,0,-1,412.44,449.81)"
               style="font-variant:normal;font-weight:normal;font-size:7.56px;font-family:'Times New Roman';-inkscape-font-specification:TimesNewRomanPSMT;writing-mode:lr-tb;fill:#000000;fill-opacity:1;fill-rule:nonzero;stroke:none"
               id="text1936"><tspan
                 x="0 4.2033601 8.0287199 10.06992 12.22452 14.37912 19.42164 22.77828"
                 y="0"
                 sodipodi:role="line"
                 id="tspan1934">SplitCap</tspan></text>
          </g>
        </g>
        <g
           id="g1938">
          <g
             id="g1940"
             clip-path="url(#clipPath1944)">
            <text
               xml:space="preserve"
               transform="matrix(1,0,0,-1,440.64,449.81)"
               style="font-variant:normal;font-weight:normal;font-size:7.56px;font-family:'Times New Roman';-inkscape-font-specification:TimesNewRomanPSMT;writing-mode:lr-tb;fill:#000000;fill-opacity:1;fill-rule:nonzero;stroke:none"
               id="text1948"><tspan
                 x="0 5.04252 8.7620401 12.59496 14.74956 17.26704 20.986561 23.02776 25.06896 28.4256"
                 y="0"
                 sodipodi:role="line"
                 id="tspan1946">Controller</tspan></text>
          </g>
        </g>
        <path
           d="m 401.64,424.92 h 80.76 v 14.4 h -80.76 z"
           style="fill:none;stroke:#000000;stroke-width:0.5;stroke-linecap:butt;stroke-linejoin:miter;stroke-miterlimit:10;stroke-dasharray:none;stroke-opacity:1"
           id="path1950" />
        <g
           id="g1952">
          <g
             id="g1954"
             clip-path="url(#clipPath1958)">
            <text
               xml:space="preserve"
               transform="matrix(1,0,0,-1,425.76,429.46)"
               style="font-variant:normal;font-weight:normal;font-size:7.56px;font-family:'Times New Roman';-inkscape-font-specification:TimesNewRomanPSMT;writing-mode:lr-tb;fill:#000000;fill-opacity:1;fill-rule:nonzero;stroke:none"
               id="text1962"><tspan
                 x="0 5.04252 8.3991604 12.23208 16.065001 18.219601 20.374201 27.095039"
                 y="0"
                 sodipodi:role="line"
                 id="tspan1960">RabbitMQ</tspan></text>
          </g>
        </g>
        <path
           d="m 401.64,404.64 h 80.76 v 14.4 h -80.76 z"
           style="fill:none;stroke:#ff0000;stroke-width:0.5;stroke-linecap:butt;stroke-linejoin:miter;stroke-miterlimit:10;stroke-dasharray:none;stroke-opacity:1"
           id="path1964" />
        <g
           id="g1966">
          <g
             id="g1968"
             clip-path="url(#clipPath1972)">
            <text
               xml:space="preserve"
               transform="matrix(1,0,0,-1,417.24,409.06)"
               style="font-variant:normal;font-weight:normal;font-size:7.56px;font-family:'Times New Roman';-inkscape-font-specification:TimesNewRomanPSMT;writing-mode:lr-tb;fill:#000000;fill-opacity:1;fill-rule:nonzero;stroke:none"
               id="text1976"><tspan
                 x="0 4.2033601 7.5599999 10.55376 13.54752 15.70212 19.42164 23.25456 24.69096 29.128679 31.283279 34.277039 36.431641 39.78828 43.621201 46.97784"
                 y="0"
                 sodipodi:role="line"
                 id="tspan1974">Session Listener</tspan></text>
          </g>
        </g>
        <path
           d="m 344.16,377.28 h 80.64 v 14.4 h -80.64 z"
           style="fill:none;stroke:#ff0000;stroke-width:0.5;stroke-linecap:butt;stroke-linejoin:miter;stroke-miterlimit:10;stroke-dasharray:none;stroke-opacity:1"
           id="path1978" />
        <g
           id="g1980">
          <g
             id="g1982"
             clip-path="url(#clipPath1986)">
            <text
               xml:space="preserve"
               transform="matrix(1,0,0,-1,364.25,381.82)"
               style="font-variant:normal;font-weight:normal;font-size:7.584px;font-family:'Times New Roman';-inkscape-font-specification:TimesNewRomanPSMT;writing-mode:lr-tb;fill:#000000;fill-opacity:1;fill-rule:nonzero;stroke:none"
               id="text1990"><tspan
                 x="0 4.0801921 7.803936 10.329408 13.696704 17.063999 20.400961 23.396641 25.550495 27.347904 32.747711 36.577633"
                 y="0"
                 sodipodi:role="line"
                 id="tspan1988">Forecast App</tspan></text>
          </g>
        </g>
        <path
           d="m 459.24,377.52 h 80.64 v 14.4 h -80.64 z"
           style="fill:none;stroke:#000000;stroke-width:0.5;stroke-linecap:butt;stroke-linejoin:miter;stroke-miterlimit:10;stroke-dasharray:none;stroke-opacity:1"
           id="path1992" />
        <g
           id="g1994">
          <g
             id="g1996"
             clip-path="url(#clipPath2000)">
            <text
               xml:space="preserve"
               transform="matrix(1,0,0,-1,487.39,382.03)"
               style="font-variant:normal;font-weight:normal;font-size:7.584px;font-family:'Times New Roman';-inkscape-font-specification:TimesNewRomanPSMT;writing-mode:lr-tb;fill:#000000;fill-opacity:1;fill-rule:nonzero;stroke:none"
               id="text2004"><tspan
                 x="0 6.7421761 10.321824 14.538528 19.923168"
                 y="0"
                 sodipodi:role="line"
                 id="tspan2002">MySQL</tspan></text>
          </g>
        </g>
        <path
           d="m 441.58,459.69 v 3.15 h 1 v -3.15 z m -1.5,2.15 2,4 2,-4 z"
           style="fill:#000000;fill-opacity:1;fill-rule:nonzero;stroke:none"
           id="path2006" />
        <path
           d="m 441.58,445.32 v -2.95 h 1 v 2.95 z m -1.5,-1.95 2,-4 2,4 z"
           style="fill:#000000;fill-opacity:1;fill-rule:nonzero;stroke:none"
           id="path2008" />
        <path
           d="m 482.4,452.02 h 18 l -0.5,0.5 v -20.35 l 0.5,0.5 h -15 v -1 h 15.5 v 21.35 h -18.5 z m 4,-17.85 -4,-2 4,-2 z"
           style="fill:#000000;fill-opacity:1;fill-rule:nonzero;stroke:none"
           id="path2010" />
        <path
           d="m 441.58,424.92 v -2.99 h 1 v 2.99 z m -1.5,-1.99 2,-4 2,4 z"
           style="fill:#000000;fill-opacity:1;fill-rule:nonzero;stroke:none"
           id="path2012" />
        <path
           d="m 401.68,412.34 h -17.7 v -17.55 h 1 v 17.05 l -0.5,-0.5 h 17.2 z m -19.2,-16.55 2,-4 2,4 z"
           style="fill:#000000;fill-opacity:1;fill-rule:nonzero;stroke:none"
           id="path2014" />
        <path
           d="m 482.4,412.34 h 17.7 V 395 h -1 v 16.84 l 0.5,-0.5 h -17.2 z m 19.2,-16.34 -2,-4 -2,4 z"
           style="fill:#000000;fill-opacity:1;fill-rule:nonzero;stroke:none"
           id="path2016" />
        <path
           d="m 401.64,353.52 h 80.76 v 14.4 h -80.76 z"
           style="fill:none;stroke:#000000;stroke-width:0.5;stroke-linecap:butt;stroke-linejoin:miter;stroke-miterlimit:10;stroke-dasharray:none;stroke-opacity:1"
           id="path2018" />
        <g
           id="g2020">
          <g
             id="g2022"
             clip-path="url(#clipPath2026)">
            <text
               xml:space="preserve"
               transform="matrix(1,0,0,-1,433.2,357.96)"
               style="font-variant:normal;font-weight:normal;font-size:7.56px;font-family:'Times New Roman';-inkscape-font-specification:TimesNewRomanPSMT;writing-mode:lr-tb;fill:#000000;fill-opacity:1;fill-rule:nonzero;stroke:none"
               id="text2030"><tspan
                 x="0 5.04252 8.3991604 12.23208 15.58872"
                 y="0"
                 sodipodi:role="line"
                 id="tspan2028">Canal</tspan></text>
          </g>
        </g>
        <g
           id="g2032">
          <g
             id="g2034"
             clip-path="url(#clipPath2038)">
            <path
               d="m 500.1,377.52 v -17.35 h -14.7 v 1 h 14.2 l -0.5,-0.5 v 16.85 z m -13.7,-18.85 -4,2 4,2 z"
               style="fill:#000000;fill-opacity:1;fill-rule:nonzero;stroke:none"
               id="path2040" />
          </g>
        </g>
        <path
           d="m 401.64,333.36 h 80.76 v 14.4 h -80.76 z"
           style="fill:none;stroke:#000000;stroke-width:0.5;stroke-linecap:butt;stroke-linejoin:miter;stroke-miterlimit:10;stroke-dasharray:none;stroke-opacity:1"
           id="path2042" />
        <g
           id="g2044">
          <g
             id="g2046"
             clip-path="url(#clipPath2050)">
            <text
               xml:space="preserve"
               transform="matrix(1,0,0,-1,432.96,337.75)"
               style="font-variant:normal;font-weight:normal;font-size:7.56px;font-family:'Times New Roman';-inkscape-font-specification:TimesNewRomanPSMT;writing-mode:lr-tb;fill:#000000;fill-opacity:1;fill-rule:nonzero;stroke:none"
               id="text2054"><tspan
                 x="0 5.39784 8.7544804 11.15856 14.87808"
                 y="0"
                 sodipodi:role="line"
                 id="tspan2052">Kafka</tspan></text>
          </g>
        </g>
        <path
           d="M 401.64,312.6 H 482.4 V 327 h -80.76 z"
           style="fill:none;stroke:#ff0000;stroke-width:0.5;stroke-linecap:butt;stroke-linejoin:miter;stroke-miterlimit:10;stroke-dasharray:none;stroke-opacity:1"
           id="path2056" />
        <g
           id="g2058">
          <g
             id="g2060"
             clip-path="url(#clipPath2064)">
            <text
               xml:space="preserve"
               transform="matrix(1,0,0,-1,418.2,317.11)"
               style="font-variant:normal;font-weight:normal;font-size:7.56px;font-family:'Times New Roman';-inkscape-font-specification:TimesNewRomanPSMT;writing-mode:lr-tb;fill:#000000;fill-opacity:1;fill-rule:nonzero;stroke:none"
               id="text2068"><tspan
                 x="0 5.04252 8.7620401 12.59496 14.99148 17.14608 20.865601 22.77828 27.216 29.3706 32.364361 34.518959 37.875599 41.708519 45.065159"
                 y="0"
                 sodipodi:role="line"
                 id="tspan2066">Config Listener</tspan></text>
          </g>
        </g>
        <path
           d="m 441.58,353.52 v -2.8 h 1 v 2.8 z m -1.5,-1.8 2,-4 2,4 z"
           style="fill:#000000;fill-opacity:1;fill-rule:nonzero;stroke:none"
           id="path2070" />
        <path
           d="m 441.58,333.36 v -3.25 h 1 v 3.25 z m -1.5,-2.25 2,-4 2,4 z"
           style="fill:#000000;fill-opacity:1;fill-rule:nonzero;stroke:none"
           id="path2072" />
        <path
           d="m 401.64,292.08 h 80.76 v 14.4 h -80.76 z"
           style="fill:none;stroke:#000000;stroke-width:0.5;stroke-linecap:butt;stroke-linejoin:miter;stroke-miterlimit:10;stroke-dasharray:none;stroke-opacity:1"
           id="path2074" />
        <g
           id="g2076">
          <g
             id="g2078"
             clip-path="url(#clipPath2082)">
            <text
               xml:space="preserve"
               transform="matrix(1,0,0,-1,426,296.54)"
               style="font-variant:normal;font-weight:normal;font-size:7.56px;font-family:'Times New Roman';-inkscape-font-specification:TimesNewRomanPSMT;writing-mode:lr-tb;fill:#000000;fill-opacity:1;fill-rule:nonzero;stroke:none"
               id="text2086"><tspan
                 x="0 4.5586801 8.2782001 11.99772 15.71724 19.073879 22.430519 26.271 29.62764"
                 y="0"
                 sodipodi:role="line"
                 id="tspan2084">Zookeeper</tspan></text>
          </g>
        </g>
        <path
           d="m 441.58,312.6 v -3.16 h 1 v 3.16 z m -1.5,-2.16 2,-4 2,4 z"
           style="fill:#000000;fill-opacity:1;fill-rule:nonzero;stroke:none"
           id="path2088" />
        <path
           d="M 401.63,298.75 H 239.74 v 67.37 h 1 v -66.87 l -0.5,0.5 h 161.39 z m -163.39,66.37 2,4 2,-4 z"
           style="fill:#000000;fill-opacity:1;fill-rule:nonzero;stroke:none"
           id="path2090" />
        <g
           id="g2092">
          <g
             id="g2094"
             clip-path="url(#clipPath2098)">
            <path
               d="m 239.74,404.39 v 48.63 h 158.89 v -1 H 240.24 l 0.5,0.5 v -48.13 z m 157.89,50.13 4,-2 -4,-2 z"
               style="fill:#000000;fill-opacity:1;fill-rule:nonzero;stroke:none"
               id="path2100" />
          </g>
        </g>
        <path
           d="M 240.74,383.56 V 387 h -1 v -3.44 z m 1.5,2.44 -2,4 -2,-4 z"
           style="fill:#000000;fill-opacity:1;fill-rule:nonzero;stroke:none"
           id="path2102" />
        <g
           id="g2104">
          <g
             id="g2106"
             clip-path="url(#clipPath2110)">
            <text
               xml:space="preserve"
               transform="matrix(1,0,0,-1,230.78,274.42)"
               style="font-variant:normal;font-weight:normal;font-size:7.56px;font-family:SimSun;-inkscape-font-specification:SimSun;writing-mode:lr-tb;fill:#000000;fill-opacity:1;fill-rule:nonzero;stroke:none"
               id="text2114"><tspan
                 x="0 7.5599999 15.12"
                 y="0"
                 sodipodi:role="line"
                 id="tspan2112">客户端</tspan></text>
          </g>
        </g>
        <g
           id="g2116">
          <g
             id="g2118"
             clip-path="url(#clipPath2122)">
            <text
               xml:space="preserve"
               transform="matrix(1,0,0,-1,431.33,274.51)"
               style="font-variant:normal;font-weight:normal;font-size:7.56px;font-family:SimSun;-inkscape-font-specification:SimSun;writing-mode:lr-tb;fill:#000000;fill-opacity:1;fill-rule:nonzero;stroke:none"
               id="text2126"><tspan
                 x="0 7.5599999 15.12"
                 y="0"
                 sodipodi:role="line"
                 id="tspan2124">服务器</tspan></text>
          </g>
        </g>
        <g
           id="g2128">
          <path
             d="M 330.6,268.8 H 554.76 V 495.36 H 330.6 Z"
             style="fill:none;stroke:#7f7f7f;stroke-width:0.5;stroke-linecap:butt;stroke-linejoin:miter;stroke-miterlimit:10;stroke-dasharray:2, 1.5;stroke-dashoffset:0;stroke-opacity:1"
             id="path2130" />
        </g>
        <g
           id="g2132">
          <path
             d="m 344.16,358.06 c 0,7.77 6.29,14.06 14.06,14.06 h 167.6 c 7.76,0 14.06,-6.29 14.06,-14.06 v -56.24 c 0,-7.77 -6.3,-14.06 -14.06,-14.06 h -167.6 c -7.77,0 -14.06,6.29 -14.06,14.06 z"
             style="fill:none;stroke:#7f7f7f;stroke-width:0.5;stroke-linecap:butt;stroke-linejoin:miter;stroke-miterlimit:10;stroke-dasharray:2, 1.5;stroke-dashoffset:0;stroke-opacity:1"
             id="path2134" />
        </g>
        <g
           id="g2136">
          <g
             id="g2138"
             clip-path="url(#clipPath2142)">
            <text
               xml:space="preserve"
               transform="matrix(1,0,0,-1,524.41,449.03)"
               style="font-variant:normal;font-weight:normal;font-size:7.56px;font-family:SimSun;-inkscape-font-specification:SimSun;writing-mode:lr-tb;fill:#000000;fill-opacity:1;fill-rule:nonzero;stroke:none"
               id="text2154"><tspan
                 x="0"
                 y="0"
                 id="tspan2144">分</tspan><tspan
                 x="0"
                 y="7.5599999"
                 id="tspan2146">析</tspan><tspan
                 x="0"
                 y="15.12"
                 id="tspan2148">服</tspan><tspan
                 x="0"
                 y="22.68"
                 id="tspan2150">务</tspan><tspan
                 x="0"
                 y="30.24"
                 id="tspan2152">器</tspan></text>
          </g>
        </g>
        <g
           id="g2156">
          <g
             id="g2158"
             clip-path="url(#clipPath2162)">
            <text
               xml:space="preserve"
               transform="matrix(1,0,0,-1,524.8,340.09)"
               style="font-variant:normal;font-weight:normal;font-size:7.56px;font-family:SimSun;-inkscape-font-specification:SimSun;writing-mode:lr-tb;fill:#000000;fill-opacity:1;fill-rule:nonzero;stroke:none"
               id="text2174"><tspan
                 x="0"
                 y="0"
                 id="tspan2164">配</tspan><tspan
                 x="0"
                 y="7.5599999"
                 id="tspan2166">置</tspan><tspan
                 x="0"
                 y="15.12"
                 id="tspan2168">服</tspan><tspan
                 x="0"
                 y="22.68"
                 id="tspan2170">务</tspan><tspan
                 x="0"
                 y="30.24"
                 id="tspan2172">器</tspan></text>
          </g>
        </g>
        <path
           d="m 401.68,473.54 h -17.7 V 394.7 h 1 v 78.34 l -0.5,-0.5 h 17.2 z m -19.2,-77.84 2,-4 2,4 z"
           style="fill:#000000;fill-opacity:1;fill-rule:nonzero;stroke:none"
           id="path2176" />
      </g>
    </g>
  </g>
</svg>
