<?xml version="1.0" encoding="UTF-8" standalone="no"?>
<!-- Created with Inkscape (http://www.inkscape.org/) -->

<svg
   width="162.10138mm"
   height="110.61347mm"
   viewBox="0 0 162.10138 110.61347"
   version="1.1"
   id="svg1506"
   inkscape:version="1.2.1 (9c6d41e410, 2022-07-14)"
   sodipodi:docname="arch.svg"
   xmlns:inkscape="http://www.inkscape.org/namespaces/inkscape"
   xmlns:sodipodi="http://sodipodi.sourceforge.net/DTD/sodipodi-0.dtd"
   xmlns="http://www.w3.org/2000/svg"
   xmlns:svg="http://www.w3.org/2000/svg">
  <sodipodi:namedview
     id="namedview1508"
     pagecolor="#ffffff"
     bordercolor="#000000"
     borderopacity="0.25"
     inkscape:showpageshadow="2"
     inkscape:pageopacity="0.0"
     inkscape:pagecheckerboard="0"
     inkscape:deskcolor="#d1d1d1"
     inkscape:document-units="mm"
     showgrid="false"
     inkscape:zoom="1.0179639"
     inkscape:cx="237.23827"
     inkscape:cy="322.70298"
     inkscape:window-width="1920"
     inkscape:window-height="991"
     inkscape:window-x="-9"
     inkscape:window-y="-9"
     inkscape:window-maximized="1"
     inkscape:current-layer="layer1" />
  <defs
     id="defs1503">
    <clipPath
       clipPathUnits="userSpaceOnUse"
       id="clipPath34">
      <path
         d="M 1.4305e-5,0 H 960.00001 V 540 H 1.4305e-5 Z"
         clip-rule="evenodd"
         id="path32" />
    </clipPath>
    <clipPath
       clipPathUnits="userSpaceOnUse"
       id="clipPath48">
      <path
         d="M 1.4305e-5,0 H 960.00001 V 540 H 1.4305e-5 Z"
         clip-rule="evenodd"
         id="path46" />
    </clipPath>
    <clipPath
       clipPathUnits="userSpaceOnUse"
       id="clipPath62">
      <path
         d="M 1.4305e-5,0 H 960.00001 V 540 H 1.4305e-5 Z"
         clip-rule="evenodd"
         id="path60" />
    </clipPath>
    <clipPath
       clipPathUnits="userSpaceOnUse"
       id="clipPath76">
      <path
         d="M 1.4305e-5,0 H 960.00001 V 540 H 1.4305e-5 Z"
         clip-rule="evenodd"
         id="path74" />
    </clipPath>
    <clipPath
       clipPathUnits="userSpaceOnUse"
       id="clipPath88">
      <path
         d="M 1.4305e-5,0 H 960.00001 V 540 H 1.4305e-5 Z"
         clip-rule="evenodd"
         id="path86" />
    </clipPath>
    <clipPath
       clipPathUnits="userSpaceOnUse"
       id="clipPath102">
      <path
         d="M 1.4305e-5,0 H 960.00001 V 540 H 1.4305e-5 Z"
         clip-rule="evenodd"
         id="path100" />
    </clipPath>
    <clipPath
       clipPathUnits="userSpaceOnUse"
       id="clipPath116">
      <path
         d="M 1.4305e-5,0 H 960.00001 V 540 H 1.4305e-5 Z"
         clip-rule="evenodd"
         id="path114" />
    </clipPath>
    <clipPath
       clipPathUnits="userSpaceOnUse"
       id="clipPath130">
      <path
         d="M 1.4305e-5,0 H 960.00001 V 540 H 1.4305e-5 Z"
         clip-rule="evenodd"
         id="path128" />
    </clipPath>
    <clipPath
       clipPathUnits="userSpaceOnUse"
       id="clipPath144">
      <path
         d="M 1.4305e-5,0 H 960.00001 V 540 H 1.4305e-5 Z"
         clip-rule="evenodd"
         id="path142" />
    </clipPath>
    <clipPath
       clipPathUnits="userSpaceOnUse"
       id="clipPath170">
      <path
         d="M 1.4305e-5,0 H 960.00001 V 540 H 1.4305e-5 Z"
         clip-rule="evenodd"
         id="path168" />
    </clipPath>
    <clipPath
       clipPathUnits="userSpaceOnUse"
       id="clipPath182">
      <path
         d="M 9.1553e-5,540 H 960 V 2.4414e-4 L 1.2207e-4,1.8311e-4"
         clip-rule="evenodd"
         id="path180" />
    </clipPath>
    <clipPath
       clipPathUnits="userSpaceOnUse"
       id="clipPath194">
      <path
         d="M 1.4305e-5,0 H 960.00001 V 540 H 1.4305e-5 Z"
         clip-rule="evenodd"
         id="path192" />
    </clipPath>
    <clipPath
       clipPathUnits="userSpaceOnUse"
       id="clipPath208">
      <path
         d="M 1.4305e-5,0 H 960.00001 V 540 H 1.4305e-5 Z"
         clip-rule="evenodd"
         id="path206" />
    </clipPath>
    <clipPath
       clipPathUnits="userSpaceOnUse"
       id="clipPath226">
      <path
         d="M 1.4305e-5,0 H 960.00001 V 540 H 1.4305e-5 Z"
         clip-rule="evenodd"
         id="path224" />
    </clipPath>
    <clipPath
       clipPathUnits="userSpaceOnUse"
       id="clipPath242">
      <path
         d="M 0,540 H 960 V 0 L 0,6.1035e-5"
         clip-rule="evenodd"
         id="path240" />
    </clipPath>
    <clipPath
       clipPathUnits="userSpaceOnUse"
       id="clipPath254">
      <path
         d="M 1.4305e-5,0 H 960.00001 V 540 H 1.4305e-5 Z"
         clip-rule="evenodd"
         id="path252" />
    </clipPath>
    <clipPath
       clipPathUnits="userSpaceOnUse"
       id="clipPath266">
      <path
         d="M 1.4305e-5,0 H 960.00001 V 540 H 1.4305e-5 Z"
         clip-rule="evenodd"
         id="path264" />
    </clipPath>
    <clipPath
       clipPathUnits="userSpaceOnUse"
       id="clipPath282">
      <path
         d="M 1.4305e-5,0 H 960.00001 V 540 H 1.4305e-5 Z"
         clip-rule="evenodd"
         id="path280" />
    </clipPath>
    <clipPath
       clipPathUnits="userSpaceOnUse"
       id="clipPath294">
      <path
         d="M 1.4305e-5,0 H 960.00001 V 540 H 1.4305e-5 Z"
         clip-rule="evenodd"
         id="path292" />
    </clipPath>
  </defs>
  <g
     inkscape:label="Layer 1"
     inkscape:groupmode="layer"
     id="layer1"
     transform="translate(-47.269594,-50.2212)">
    <g
       id="g1352"
       transform="matrix(0.44097221,0,0,-0.44097221,-35.483251,264.75418)">
      <path
         d="m 344.4,461.4 c 0,9.15 7.41,16.56 16.56,16.56 h 162.72 c 9.15,0 16.56,-7.41 16.56,-16.56 v -66.24 c 0,-9.15 -7.41,-16.56 -16.56,-16.56 H 360.96 c -9.15,0 -16.56,7.41 -16.56,16.56 z"
         style="fill:none;stroke:#c00000;stroke-width:1;stroke-linecap:butt;stroke-linejoin:miter;stroke-miterlimit:10;stroke-dasharray:none;stroke-opacity:1"
         id="path22" />
      <path
         d="M 188.16,236.16 H 299.04 V 486 H 188.16 Z"
         style="fill:none;stroke:#ff0000;stroke-width:1;stroke-linecap:butt;stroke-linejoin:miter;stroke-miterlimit:10;stroke-dasharray:none;stroke-opacity:1"
         id="path24" />
      <path
         d="m 201.36,370.44 h 80.76 v 16.32 h -80.76 z"
         style="fill:none;stroke:#70ad47;stroke-width:1;stroke-linecap:butt;stroke-linejoin:miter;stroke-miterlimit:10;stroke-dasharray:none;stroke-opacity:1"
         id="path26" />
      <g
         id="g28">
        <g
           id="g30"
           clip-path="url(#clipPath34)">
          <text
             xml:space="preserve"
             transform="matrix(1,0,0,-1,230.33,376.22)"
             style="font-variant:normal;font-weight:normal;font-size:7.56px;font-family:DengXian;-inkscape-font-specification:DengXian;writing-mode:lr-tb;fill:#000000;fill-opacity:1;fill-rule:nonzero;stroke:none"
             id="text38"><tspan
               x="0 7.5599999 15.12"
               y="0"
               sodipodi:role="line"
               id="tspan36">嗅探器</tspan></text>
        </g>
      </g>
      <path
         d="m 201.36,344.16 h 80.76 v 16.32 h -80.76 z"
         style="fill:none;stroke:#70ad47;stroke-width:1;stroke-linecap:butt;stroke-linejoin:miter;stroke-miterlimit:10;stroke-dasharray:none;stroke-opacity:1"
         id="path40" />
      <g
         id="g42">
        <g
           id="g44"
           clip-path="url(#clipPath48)">
          <text
             xml:space="preserve"
             transform="matrix(1,0,0,-1,230.33,349.9)"
             style="font-variant:normal;font-weight:normal;font-size:7.56px;font-family:DengXian;-inkscape-font-specification:DengXian;writing-mode:lr-tb;fill:#000000;fill-opacity:1;fill-rule:nonzero;stroke:none"
             id="text52"><tspan
               x="0 7.5599999 15.12"
               y="0"
               sodipodi:role="line"
               id="tspan50">监听器</tspan></text>
        </g>
      </g>
      <path
         d="m 402,454.92 h 80.76 v 16.92 H 402 Z"
         style="fill:none;stroke:#4472c4;stroke-width:1;stroke-linecap:butt;stroke-linejoin:miter;stroke-miterlimit:10;stroke-dasharray:none;stroke-opacity:1"
         id="path54" />
      <g
         id="g56">
        <g
           id="g58"
           clip-path="url(#clipPath62)">
          <text
             xml:space="preserve"
             transform="matrix(1,0,0,-1,433.78,461.28)"
             style="font-variant:normal;font-weight:normal;font-size:7.56px;font-family:DengXian;-inkscape-font-specification:DengXian;writing-mode:lr-tb;fill:#000000;fill-opacity:1;fill-rule:nonzero;stroke:none"
             id="text66"><tspan
               x="0 4.3167601 8.1572399 12.49668 14.15988"
               y="0"
               sodipodi:role="line"
               id="tspan64">Redis</tspan></text>
        </g>
      </g>
      <path
         d="m 402,430.56 h 80.76 V 447 H 402 Z"
         style="fill:none;stroke:#000000;stroke-width:1;stroke-linecap:butt;stroke-linejoin:miter;stroke-miterlimit:10;stroke-dasharray:none;stroke-opacity:1"
         id="path68" />
      <g
         id="g70">
        <g
           id="g72"
           clip-path="url(#clipPath76)">
          <text
             xml:space="preserve"
             transform="matrix(1,0,0,-1,412.18,436.39)"
             style="font-variant:normal;font-weight:normal;font-size:7.584px;font-family:DengXian;-inkscape-font-specification:DengXian;writing-mode:lr-tb;fill:#000000;fill-opacity:1;fill-rule:nonzero;stroke:none"
             id="text80"><tspan
               x="0 3.8375039 8.1603842 9.8591995 11.520096 13.931808 18.603552 22.433472"
               y="0"
               sodipodi:role="line"
               id="tspan78">SplitCap</tspan></text>
        </g>
      </g>
      <g
         id="g82">
        <g
           id="g84"
           clip-path="url(#clipPath88)">
          <text
             xml:space="preserve"
             transform="matrix(1,0,0,-1,440.5,436.39)"
             style="font-variant:normal;font-weight:normal;font-size:7.584px;font-family:DengXian;-inkscape-font-specification:DengXian;writing-mode:lr-tb;fill:#000000;fill-opacity:1;fill-rule:nonzero;stroke:none"
             id="text92"><tspan
               x="0 4.7020798 9.0022078 13.19616 15.607872 18.118176 22.441055 24.139872 25.800768 29.638271"
               y="0"
               sodipodi:role="line"
               id="tspan90">Controller</tspan></text>
        </g>
      </g>
      <path
         d="m 402,405.96 h 80.76 V 422.4 H 402 Z"
         style="fill:none;stroke:#4472c4;stroke-width:1;stroke-linecap:butt;stroke-linejoin:miter;stroke-miterlimit:10;stroke-dasharray:none;stroke-opacity:1"
         id="path94" />
      <g
         id="g96">
        <g
           id="g98"
           clip-path="url(#clipPath102)">
          <text
             xml:space="preserve"
             transform="matrix(1,0,0,-1,425.86,411.77)"
             style="font-variant:normal;font-weight:normal;font-size:7.56px;font-family:DengXian;-inkscape-font-specification:DengXian;writing-mode:lr-tb;fill:#000000;fill-opacity:1;fill-rule:nonzero;stroke:none"
             id="text106"><tspan
               x="0 4.3167601 8.1496801 12.48912 16.79076 18.4842 20.888281 27.465481"
               y="0"
               sodipodi:role="line"
               id="tspan104">RabbitMQ</tspan></text>
        </g>
      </g>
      <path
         d="m 402,381.72 h 80.76 v 16.32 H 402 Z"
         style="fill:none;stroke:#000000;stroke-width:1;stroke-linecap:butt;stroke-linejoin:miter;stroke-miterlimit:10;stroke-dasharray:none;stroke-opacity:1"
         id="path108" />
      <g
         id="g110">
        <g
           id="g112"
           clip-path="url(#clipPath116)">
          <text
             xml:space="preserve"
             transform="matrix(1,0,0,-1,416.98,387.48)"
             style="font-variant:normal;font-weight:normal;font-size:7.56px;font-family:DengXian;-inkscape-font-specification:DengXian;writing-mode:lr-tb;fill:#000000;fill-opacity:1;fill-rule:nonzero;stroke:none"
             id="text120"><tspan
               x="0 3.8404801 7.6809602 10.79568 13.9104 15.60384 19.91304 24.108841 25.787161 29.264759 30.9582 34.0578 36.46188 40.2948 44.490601 48.331081"
               y="0"
               sodipodi:role="line"
               id="tspan118">Session Listener</tspan></text>
        </g>
      </g>
      <path
         d="m 344.4,357.24 h 80.76 v 16.32 H 344.4 Z"
         style="fill:none;stroke:#ed7d31;stroke-width:1;stroke-linecap:butt;stroke-linejoin:miter;stroke-miterlimit:10;stroke-dasharray:none;stroke-opacity:1"
         id="path122" />
      <g
         id="g124">
        <g
           id="g126"
           clip-path="url(#clipPath130)">
          <text
             xml:space="preserve"
             transform="matrix(1,0,0,-1,363.72,362.98)"
             style="font-variant:normal;font-weight:normal;font-size:7.56px;font-family:DengXian;-inkscape-font-specification:DengXian;writing-mode:lr-tb;fill:#000000;fill-opacity:1;fill-rule:nonzero;stroke:none"
             id="text134"><tspan
               x="0 3.6061201 7.9380002 10.44036 14.28084 17.750879 21.583799 24.698521 27.1026 28.78092 33.589081 37.898281"
               y="0"
               sodipodi:role="line"
               id="tspan132">Forecast App</tspan></text>
        </g>
      </g>
      <path
         d="m 459.6,357.36 h 80.64 V 373.8 H 459.6 Z"
         style="fill:none;stroke:#4472c4;stroke-width:1;stroke-linecap:butt;stroke-linejoin:miter;stroke-miterlimit:10;stroke-dasharray:none;stroke-opacity:1"
         id="path136" />
      <g
         id="g138">
        <g
           id="g140"
           clip-path="url(#clipPath144)">
          <text
             xml:space="preserve"
             transform="matrix(1,0,0,-1,488.33,363.19)"
             style="font-variant:normal;font-weight:normal;font-size:7.56px;font-family:DengXian;-inkscape-font-specification:DengXian;writing-mode:lr-tb;fill:#000000;fill-opacity:1;fill-rule:nonzero;stroke:none"
             id="text148"><tspan
               x="0 6.59232 10.18332 14.0238 19.77696"
               y="0"
               sodipodi:role="line"
               id="tspan146">MySQL</tspan></text>
        </g>
      </g>
      <path
         d="m 441.82,446.98 v 4.94 h 1 v -4.94 z m -1.5,3.94 2,4 2,-4 z"
         style="fill:#000000;fill-opacity:1;fill-rule:nonzero;stroke:none"
         id="path150" />
      <path
         d="m 441.82,430.56 v -5.24 h 1 v 5.24 z m -1.5,-4.24 2,-4 2,4 z"
         style="fill:#000000;fill-opacity:1;fill-rule:nonzero;stroke:none"
         id="path152" />
      <path
         d="m 482.76,438.34 h 18 l -0.5,0.5 v -24.6 l 0.5,0.5 h -15 v -1 h 15.5 v 25.6 h -18.5 z m 4,-22.1 -4,-2 4,-2 z"
         style="fill:#000000;fill-opacity:1;fill-rule:nonzero;stroke:none"
         id="path154" />
      <path
         d="m 442.82,405.96 v -4.94 h -1 v 4.94 z m 1.5,-3.94 -2,-4 -2,4 z"
         style="fill:#000000;fill-opacity:1;fill-rule:nonzero;stroke:none"
         id="path156" />
      <path
         d="m 402.04,390.38 h -17.7 v -13.83 h 1 v 13.33 l -0.5,-0.5 h 17.2 z m -19.2,-12.83 2,-4 2,4 z"
         style="fill:#000000;fill-opacity:1;fill-rule:nonzero;stroke:none"
         id="path158" />
      <path
         d="m 482.76,390.38 h 17.7 v -13.61 h -1 v 13.11 l 0.5,-0.5 h -17.2 z m 19.2,-12.61 -2,-4 -2,4 z"
         style="fill:#000000;fill-opacity:1;fill-rule:nonzero;stroke:none"
         id="path160" />
      <path
         d="m 402,332.52 h 80.76 v 16.32 H 402 Z"
         style="fill:none;stroke:#4472c4;stroke-width:1;stroke-linecap:butt;stroke-linejoin:miter;stroke-miterlimit:10;stroke-dasharray:none;stroke-opacity:1"
         id="path162" />
      <g
         id="g164">
        <g
           id="g166"
           clip-path="url(#clipPath170)">
          <text
             xml:space="preserve"
             transform="matrix(1,0,0,-1,433.3,338.26)"
             style="font-variant:normal;font-weight:normal;font-size:7.56px;font-family:DengXian;-inkscape-font-specification:DengXian;writing-mode:lr-tb;fill:#000000;fill-opacity:1;fill-rule:nonzero;stroke:none"
             id="text174"><tspan
               x="0 4.6872001 8.5125599 12.70836 16.541281"
               y="0"
               sodipodi:role="line"
               id="tspan172">Canal</tspan></text>
        </g>
      </g>
      <g
         id="g176">
        <g
           id="g178"
           clip-path="url(#clipPath182)">
          <path
             d="m 500.46,357.36 v -17.24 h -14.7 v 1 h 14.2 l -0.5,-0.5 v 16.74 z m -13.7,-18.74 -4,2 4,2 z"
             style="fill:#000000;fill-opacity:1;fill-rule:nonzero;stroke:none"
             id="path184" />
        </g>
      </g>
      <path
         d="m 402,307.8 h 80.76 v 16.32 H 402 Z"
         style="fill:none;stroke:#4472c4;stroke-width:1;stroke-linecap:butt;stroke-linejoin:miter;stroke-miterlimit:10;stroke-dasharray:none;stroke-opacity:1"
         id="path186" />
      <g
         id="g188">
        <g
           id="g190"
           clip-path="url(#clipPath194)">
          <text
             xml:space="preserve"
             transform="matrix(1,0,0,-1,433.54,313.56)"
             style="font-variant:normal;font-weight:normal;font-size:7.56px;font-family:DengXian;-inkscape-font-specification:DengXian;writing-mode:lr-tb;fill:#000000;fill-opacity:1;fill-rule:nonzero;stroke:none"
             id="text198"><tspan
               x="0 4.1806798 8.0287199 10.30428 13.89528"
               y="0"
               sodipodi:role="line"
               id="tspan196">Kafka</tspan></text>
        </g>
      </g>
      <path
         d="m 402,282.84 h 80.76 v 16.32 H 402 Z"
         style="fill:none;stroke:#000000;stroke-width:1;stroke-linecap:butt;stroke-linejoin:miter;stroke-miterlimit:10;stroke-dasharray:none;stroke-opacity:1"
         id="path200" />
      <g
         id="g202">
        <g
           id="g204"
           clip-path="url(#clipPath208)">
          <text
             xml:space="preserve"
             transform="matrix(1,0,0,-1,418.3,288.53)"
             style="font-variant:normal;font-weight:normal;font-size:7.56px;font-family:DengXian;-inkscape-font-specification:DengXian;writing-mode:lr-tb;fill:#000000;fill-opacity:1;fill-rule:nonzero;stroke:none"
             id="text212"><tspan
               x="0 4.6872001 9.0190802 13.1922 15.46776 17.1612 21.4704 23.14872 26.62632 28.319759 31.419359 33.823441 37.656361 41.852161 45.692638"
               y="0"
               sodipodi:role="line"
               id="tspan210">Config Listener</tspan></text>
        </g>
      </g>
      <path
         d="m 441.82,332.52 v -5.34 h 1 v 5.34 z m -1.5,-4.34 2,-4 2,4 z"
         style="fill:#000000;fill-opacity:1;fill-rule:nonzero;stroke:none"
         id="path214" />
      <path
         d="m 442.82,307.8 v -5.66 h -1 v 5.66 z m 1.5,-4.66 -2,-4 -2,4 z"
         style="fill:#000000;fill-opacity:1;fill-rule:nonzero;stroke:none"
         id="path216" />
      <path
         d="m 402,257.76 h 80.76 v 16.32 H 402 Z"
         style="fill:none;stroke:#4472c4;stroke-width:1;stroke-linecap:butt;stroke-linejoin:miter;stroke-miterlimit:10;stroke-dasharray:none;stroke-opacity:1"
         id="path218" />
      <g
         id="g220">
        <g
           id="g222"
           clip-path="url(#clipPath226)">
          <text
             xml:space="preserve"
             transform="matrix(1,0,0,-1,424.9,263.52)"
             style="font-variant:normal;font-weight:normal;font-size:7.56px;font-family:DengXian;-inkscape-font-specification:DengXian;writing-mode:lr-tb;fill:#000000;fill-opacity:1;fill-rule:nonzero;stroke:none"
             id="text230"><tspan
               x="0 4.3091998 8.6410799 12.97296 16.54884 20.38932 24.229799 28.569241 32.387039"
               y="0"
               sodipodi:role="line"
               id="tspan228">Zookeeper</tspan></text>
        </g>
      </g>
      <path
         d="m 442.82,282.84 v -5.66 h -1 v 5.66 z m 1.5,-4.66 -2,-4 -2,4 z"
         style="fill:#000000;fill-opacity:1;fill-rule:nonzero;stroke:none"
         id="path232" />
      <path
         d="M 401.97,265.46 H 241.18 v 75.7 h 1 v -75.2 l -0.5,0.5 h 160.29 z m -162.29,74.7 2,4 2,-4 z"
         style="fill:#000000;fill-opacity:1;fill-rule:nonzero;stroke:none"
         id="path234" />
      <g
         id="g236">
        <g
           id="g238"
           clip-path="url(#clipPath242)">
          <path
             d="m 241.18,386.86 v 52.48 h 157.79 v -1 H 241.68 l 0.5,0.5 v -51.98 z m 156.79,53.98 4,-2 -4,-2 z"
             style="fill:#000000;fill-opacity:1;fill-rule:nonzero;stroke:none"
             id="path244" />
        </g>
      </g>
      <path
         d="m 242.18,360.5 v 6.94 h -1 v -6.94 z m 1.5,5.94 -2,4 -2,-4 z"
         style="fill:#000000;fill-opacity:1;fill-rule:nonzero;stroke:none"
         id="path246" />
      <g
         id="g248">
        <g
           id="g250"
           clip-path="url(#clipPath254)">
          <text
             xml:space="preserve"
             transform="matrix(1,0,0,-1,232.18,241.73)"
             style="font-variant:normal;font-weight:normal;font-size:7.56px;font-family:DengXian;-inkscape-font-specification:DengXian;writing-mode:lr-tb;fill:#000000;fill-opacity:1;fill-rule:nonzero;stroke:none"
             id="text258"><tspan
               x="0 7.5599999 15.12"
               y="0"
               sodipodi:role="line"
               id="tspan256">客户端</tspan></text>
        </g>
      </g>
      <g
         id="g260">
        <g
           id="g262"
           clip-path="url(#clipPath266)">
          <text
             xml:space="preserve"
             transform="matrix(1,0,0,-1,430.99,241.73)"
             style="font-variant:normal;font-weight:normal;font-size:7.56px;font-family:DengXian;-inkscape-font-specification:DengXian;writing-mode:lr-tb;fill:#000000;fill-opacity:1;fill-rule:nonzero;stroke:none"
             id="text270"><tspan
               x="0 7.5599999 15.12"
               y="0"
               sodipodi:role="line"
               id="tspan268">服务器</tspan></text>
        </g>
      </g>
      <path
         d="M 330.6,236.16 H 554.76 V 486 H 330.6 Z"
         style="fill:none;stroke:#ff0000;stroke-width:1;stroke-linecap:butt;stroke-linejoin:miter;stroke-miterlimit:10;stroke-dasharray:none;stroke-opacity:1"
         id="path272" />
      <path
         d="m 344.4,336 c 0,9.15 7.41,16.56 16.56,16.56 h 162.72 c 9.15,0 16.56,-7.41 16.56,-16.56 v -66.24 c 0,-9.15 -7.41,-16.56 -16.56,-16.56 H 360.96 c -9.15,0 -16.56,7.41 -16.56,16.56 z"
         style="fill:none;stroke:#c00000;stroke-width:1;stroke-linecap:butt;stroke-linejoin:miter;stroke-miterlimit:10;stroke-dasharray:none;stroke-opacity:1"
         id="path274" />
      <g
         id="g276">
        <g
           id="g278"
           clip-path="url(#clipPath282)">
          <text
             xml:space="preserve"
             transform="matrix(1,0,0,-1,351.7,465.98)"
             style="font-variant:normal;font-weight:normal;font-size:7.56px;font-family:DengXian;-inkscape-font-specification:DengXian;writing-mode:lr-tb;fill:#000000;fill-opacity:1;fill-rule:nonzero;stroke:none"
             id="text286"><tspan
               x="0 7.5599999 15.12 22.68 30.24"
               y="0"
               sodipodi:role="line"
               id="tspan284">分析服务器</tspan></text>
        </g>
      </g>
      <g
         id="g288">
        <g
           id="g290"
           clip-path="url(#clipPath294)">
          <text
             xml:space="preserve"
             transform="matrix(1,0,0,-1,351.7,339.94)"
             style="font-variant:normal;font-weight:normal;font-size:7.56px;font-family:DengXian;-inkscape-font-specification:DengXian;writing-mode:lr-tb;fill:#000000;fill-opacity:1;fill-rule:nonzero;stroke:none"
             id="text298"><tspan
               x="0 7.5599999 15.12 22.68 30.24"
               y="0"
               sodipodi:role="line"
               id="tspan296">配置服务器</tspan></text>
        </g>
      </g>
      <path
         d="m 402.04,463.82 h -17.7 V 376.5 h 1 v 86.82 l -0.5,-0.5 h 17.2 z m -19.2,-86.32 2,-4 2,4 z"
         style="fill:#000000;fill-opacity:1;fill-rule:nonzero;stroke:none"
         id="path300" />
    </g>
  </g>
</svg>
